<svg id="bcf293f5-8fbd-4846-8a1b-f68cbaf5ea67" data-name="Layer 1" xmlns="http://www.w3.org/2000/svg" width="891.52235" height="611.2385" viewBox="0 0 891.52235 611.2385"><title>landscape_mode</title><polygon points="860 557.113 860.614 519.338 886.158 472.606 860.71 513.413 860.986 496.428 878.591 462.617 861.059 491.933 861.059 491.933 861.555 461.385 880.407 434.467 861.633 456.581 861.943 400.566 859.995 474.72 860.155 471.661 840.988 442.322 859.847 477.533 858.061 511.65 858.008 510.744 835.912 479.87 857.941 513.943 857.718 518.21 857.678 518.274 857.696 518.625 853.165 605.183 859.219 605.183 859.945 560.474 881.921 526.484 860 557.113" fill="#e6e6e6"/><path d="M358.86072,575.59679c0,77.052-45.80617,103.95564-102.31095,103.95564S154.23883,652.64876,154.23883,575.59679,256.54977,400.52257,256.54977,400.52257,358.86072,498.54482,358.86072,575.59679Z" transform="translate(-154.23883 -144.38075)" fill="#e6e6e6"/><polygon points="98.584 523.385 99.632 458.9 143.239 379.122 99.796 448.784 100.267 419.788 130.321 362.07 100.392 412.115 100.392 412.115 101.239 359.966 133.421 314.015 101.372 351.765 101.901 256.142 98.575 382.73 98.848 377.508 66.128 327.424 98.323 387.533 95.275 445.775 95.184 444.229 57.463 391.523 95.07 449.69 94.688 456.974 94.62 457.083 94.651 457.681 86.916 605.446 97.251 605.446 98.491 529.122 136.005 471.098 98.584 523.385" fill="#3f3d56"/><path d="M445.73072,404.05989v3.87394H339.60557a61.42235,61.42235,0,0,0-61.42242,61.42254V694.19671a61.42235,61.42235,0,0,0,61.42242,61.42254H921.8164a61.42236,61.42236,0,0,0,61.42243-61.42254V469.35637a61.42236,61.42236,0,0,0-61.42243-61.42254H521.2724v-3.87394Z" transform="translate(-154.23883 -144.38075)" fill="#3f3d56"/><path d="M340.03412,421.00729H921.38841a45.87243,45.87243,0,0,1,45.87164,45.87163V692.79807a45.87248,45.87248,0,0,1-45.87164,45.87164H340.03412a45.87251,45.87251,0,0,1-45.87163-45.87164V665.39129a21.8039,21.8039,0,0,0,30.02243-20.17961V516.40287a21.804,21.804,0,0,0-30.02243-20.17967V466.87892A45.87246,45.87246,0,0,1,340.03412,421.00729Z" transform="translate(-154.23883 -144.38075)" fill="#fff"/><circle cx="356.90302" cy="396.40466" r="64.39042" fill="#ff6584"/><path d="M713.063,739.213H397.18292a6.44311,6.44311,0,0,1-1.18041-.09352L545.39925,480.34285a10.46036,10.46036,0,0,1,18.20858,0L663.87179,654.002l4.80347,8.30961Z" transform="translate(-154.23883 -144.38075)" fill="#3ec483"/><polygon points="558.824 594.832 450.975 594.832 503.918 517.931 507.728 512.391 509.633 509.621 514.436 517.931 558.824 594.832" opacity="0.2"/><path d="M888.94276,739.213H615.73245l52.94281-76.90137,3.80994-5.53977,68.98923-100.21723c4.52292-6.56816,15.40364-6.97719,20.72128-1.23883a12.4667,12.4667,0,0,1,.99345,1.23883Z" transform="translate(-154.23883 -144.38075)" fill="#3ec483"/><path d="M633.06507,207.23734c0,34.71474-14.94633,35.79334-39.29486,35.79334s-48.879-1.0786-48.879-35.79334,19.73839-62.85659,44.08692-62.85659S633.06507,172.5226,633.06507,207.23734Z" transform="translate(-154.23883 -144.38075)" fill="#2f2e41"/><path d="M572.5894,208.65148s10.39425,43.4669,6.61452,48.19156S611.33163,271.962,611.33163,271.962l15.11892-41.577-8.5044-.94493s-12.28412-2.8348-8.50439-26.45811S572.5894,208.65148,572.5894,208.65148Z" transform="translate(-154.23883 -144.38075)" fill="#a0616a"/><circle cx="434.88689" cy="45.84455" r="30.7103" fill="#a0616a"/><path d="M558.88788,363.14794l-21.73345,18.89865s-66.14527,24.56824-51.02635,62.36554S529.595,537.96044,529.595,537.96044l7.55946,17.95371h18.89865l12.28412-5.66959-2.8348-7.55946s-6.61452-10.39426-6.61452-16.06385-11.33919-70.86993-18.89865-75.5946c0,0,37.7973-36.85236,65.20034-38.74223s34.9625-8.50439,50.08142,0,74.64966,24.56825,74.64966,24.56825,32.1277,58.58581,48.19155,68.98007,29.29291,45.35675,29.29291,45.35675l26.45811-4.72466-13.22906-27.403s-13.229-19.84358-13.229-28.348-43.46689-90.71352-74.64966-103.94257-46.29792-25.39233-46.29792-25.39233L615,342Z" transform="translate(-154.23883 -144.38075)" fill="#2f2e41"/><path d="M537.15443,542.6851s-6.61453-4.72466-11.33919,4.72466-17.95371,31.18277-17.95371,31.18277-38.74223,29.29291-9.44933,36.85237c0,0,14.174.94493,38.74223-16.06385s42.522-25.51318,43.46689-28.348-5.66959-34.9625-12.28412-34.9625-4.72466,15.11892-12.28412,15.11892a86.97825,86.97825,0,0,0-16.06385,1.88987Z" transform="translate(-154.23883 -144.38075)" fill="#2f2e41"/><path d="M842.49346,551.8211A19.36672,19.36672,0,0,0,817.5877,540.062c-1.45142.54428-2.43415,1.11124-2.62313,1.6782-.94494,2.8348-9.49636,4.235-10.41778,2.59s-7.53594-6.36971-2.81128,11.584,18.89865,56.696,26.45811,63.31048,34.01757,5.66959,35.90743-.94494-.94493-18.89864-4.72466-23.62331-10.39426-19.84358-11.33919-25.51317C847.59253,566.47519,845.05531,558.9943,842.49346,551.8211Z" transform="translate(-154.23883 -144.38075)" fill="#2f2e41"/><path d="M672.99625,418.43271s7.4348,32.04485,22.03066,24.51533-16.00277-37.52059-16.00277-37.52059Z" transform="translate(-154.23883 -144.38075)" fill="#a0616a"/><path d="M591.73206,400.479s7.4348,32.04486,22.03066,24.51534S597.76,387.47374,597.76,387.47374Z" transform="translate(-154.23883 -144.38075)" fill="#a0616a"/><path d="M663.77538,348.029c-10.93288,3.364-18.1238,3.73249-21.57283,7.11531a6.62324,6.62324,0,0,0-1.10555,1.38908c-2.8348,4.72466-15.11892,6.61453-31.18277,2.8348a45.35364,45.35364,0,0,0-16.50794-1.20954c-5.49012.55753-11.018,1.71978-21.28936,1.20954-17.92534-.8977-26.49588-59.58744-30.55914-75.31113-.21732-.85986-.42517-1.58748-.62363-2.17333-3.77973-11.33919,16.06385-22.67838,18.89865-25.51318s11.33919-14.174,19.16326-15.35515c7.81455-1.18117,19.579,15.35515,19.579,15.35515s18.42618-22.20591,16.53632-27.8755,17.95371-1.88987,21.73344-2.8348c2.13556-.53862,11.05572,1.79534,18.41673,3.93089a15.72307,15.72307,0,0,1,11.31087,13.8716c.12284,1.54025.25509,3.2128.3874,5.00819C669.30321,279.33242,673.15855,345.147,663.77538,348.029Z" transform="translate(-154.23883 -144.38075)" fill="#e6e6e6"/><path d="M593.40629,358.15867c-5.49012.55753-11.018,1.71978-21.28936,1.20954-17.92534-.8977-26.49588-59.58744-30.55914-75.31113.68038-4.89474,1.26624-7.84293,1.26624-7.84293l5.19712,7.087s25.04071,41.10456,31.65524,52.44375C582.37888,340.375,587.92563,349.11566,593.40629,358.15867Z" transform="translate(-154.23883 -144.38075)" opacity="0.1"/><path d="M548.49362,272.43442l-8.50439,3.77973S528.65,332.9101,548.49362,361.25807s27.403,33.07264,31.18277,37.7973a10.57748,10.57748,0,0,0,9.44933,3.77973s-3.77973,9.44932,2.83479,9.44932,31.18277-9.44932,24.56825-12.28412-13.22906-7.55946-11.33919-12.28412-21.73345-40.63209-28.348-51.97128S548.49362,272.43442,548.49362,272.43442Z" transform="translate(-154.23883 -144.38075)" fill="#e6e6e6"/><path d="M663.77538,348.029c-10.93288,3.364-18.1238,3.73249-21.57283,7.11531-.86932-9.33594-.83154-18.13326.78431-25.069,5.80782-24.89063,10.1908-78.78882,9.92179-92.13091-.03192-1.58326.30629.94493,1.88987.94493v.94493c6.99252,0,8.95794-2.48517,10.92342,4.22383.39685,1.34184.81262,2.81593,1.23786,4.41287C669.30321,279.33242,673.15855,345.147,663.77538,348.029Z" transform="translate(-154.23883 -144.38075)" opacity="0.1"/><path d="M651.49126,232.74726H654.387a15.74361,15.74361,0,0,1,15.11375,11.3109,322.154,322.154,0,0,1,8.44862,38.77052c5.6696,34.9625,12.28413,121.89628,11.33919,123.78615s11.33919,11.33919,5.6696,13.22905-16.06385,5.6696-20.78852,6.61453-14.174-8.50439-14.174-8.50439-19.84358-59.53074-13.22906-87.87872S651.49126,232.74726,651.49126,232.74726Z" transform="translate(-154.23883 -144.38075)" fill="#e6e6e6"/><path d="M615.60491,168.38848c0,9.4019-12.89835,17.02366-28.80927,17.02366s-30.55529,5.03686-30.55529-4.365,14.64437-29.68228,30.55529-29.68228S615.60491,158.98657,615.60491,168.38848Z" transform="translate(-154.23883 -144.38075)" fill="#2f2e41"/><path d="M545.15289,213.12915s-1.1759,31.64755,30.273,29.90153-4.25-27.05181-4.25-27.05181Z" transform="translate(-154.23883 -144.38075)" fill="#2f2e41"/><rect x="3.52235" y="604.02221" width="888" height="2.24072" fill="#3f3d56"/></svg>